<svg id="visual" viewBox="0 0 900 600" width="900" height="600" xmlns="http://www.w3.org/2000/svg" xmlns:xlink="http://www.w3.org/1999/xlink" version="1.1"><path d="M0 13L900 43L900 0L0 0Z" fill="#1b1b1b"></path><path d="M0 31L900 103L900 41L0 11Z" fill="#252525"></path><path d="M0 43L900 115L900 101L0 29Z" fill="#2f2f2f"></path><path d="M0 43L900 145L900 113L0 41Z" fill="#3a3939"></path><path d="M0 49L900 199L900 143L0 41Z" fill="#454444"></path><path d="M0 61L900 205L900 197L0 47Z" fill="#494848"></path><path d="M0 103L900 397L900 203L0 59Z" fill="#494848"></path><path d="M0 331L900 439L900 395L0 101Z" fill="#454444"></path><path d="M0 397L900 481L900 437L0 329Z" fill="#3a3939"></path><path d="M0 397L900 541L900 479L0 395Z" fill="#2f2f2f"></path><path d="M0 433L900 565L900 539L0 395Z" fill="#252525"></path><path d="M0 601L900 601L900 563L0 431Z" fill="#1b1b1b"></path></svg>
