<svg id="visual" viewBox="0 0 900 450" width="900" height="450" xmlns="http://www.w3.org/2000/svg" xmlns:xlink="http://www.w3.org/1999/xlink" version="1.1"><path d="M0 82L82 82L82 100L164 100L164 118L245 118L245 159L327 159L327 37L409 37L409 60L491 60L491 69L573 69L573 51L655 51L655 51L736 51L736 87L818 87L818 96L900 96L900 55L900 0L900 0L818 0L818 0L736 0L736 0L655 0L655 0L573 0L573 0L491 0L491 0L409 0L409 0L327 0L327 0L245 0L245 0L164 0L164 0L82 0L82 0L0 0Z" fill="#333333"></path><path d="M0 118L82 118L82 136L164 136L164 145L245 145L245 177L327 177L327 60L409 60L409 105L491 105L491 82L573 82L573 96L655 96L655 87L736 87L736 118L818 118L818 123L900 123L900 100L900 53L900 94L818 94L818 85L736 85L736 49L655 49L655 49L573 49L573 67L491 67L491 58L409 58L409 35L327 35L327 157L245 157L245 116L164 116L164 98L82 98L82 80L0 80Z" fill="#2e2e2e"></path><path d="M0 181L82 181L82 177L164 177L164 213L245 213L245 235L327 235L327 96L409 96L409 132L491 132L491 118L573 118L573 145L655 145L655 154L736 154L736 141L818 141L818 159L900 159L900 118L900 98L900 121L818 121L818 116L736 116L736 85L655 85L655 94L573 94L573 80L491 80L491 103L409 103L409 58L327 58L327 175L245 175L245 143L164 143L164 134L82 134L82 116L0 116Z" fill="#292929"></path><path d="M0 235L82 235L82 204L164 204L164 262L245 262L245 271L327 271L327 136L409 136L409 163L491 163L491 159L573 159L573 163L655 163L655 190L736 190L736 190L818 190L818 217L900 217L900 163L900 116L900 157L818 157L818 139L736 139L736 152L655 152L655 143L573 143L573 116L491 116L491 130L409 130L409 94L327 94L327 233L245 233L245 211L164 211L164 175L82 175L82 179L0 179Z" fill="#242424"></path><path d="M0 330L82 330L82 294L164 294L164 334L245 334L245 321L327 321L327 280L409 280L409 258L491 258L491 276L573 276L573 321L655 321L655 307L736 307L736 352L818 352L818 325L900 325L900 325L900 161L900 215L818 215L818 188L736 188L736 188L655 188L655 161L573 161L573 157L491 157L491 161L409 161L409 134L327 134L327 269L245 269L245 260L164 260L164 202L82 202L82 233L0 233Z" fill="#202020"></path><path d="M0 352L82 352L82 334L164 334L164 343L245 343L245 330L327 330L327 316L409 316L409 298L491 298L491 312L573 312L573 366L655 366L655 321L736 321L736 388L818 388L818 352L900 352L900 357L900 323L900 323L818 323L818 350L736 350L736 305L655 305L655 319L573 319L573 274L491 274L491 256L409 256L409 278L327 278L327 319L245 319L245 332L164 332L164 292L82 292L82 328L0 328Z" fill="#1b1b1b"></path><path d="M0 420L82 420L82 375L164 375L164 388L245 388L245 379L327 379L327 411L409 411L409 379L491 379L491 375L573 375L573 415L655 415L655 411L736 411L736 415L818 415L818 393L900 393L900 424L900 355L900 350L818 350L818 386L736 386L736 319L655 319L655 364L573 364L573 310L491 310L491 296L409 296L409 314L327 314L327 328L245 328L245 341L164 341L164 332L82 332L82 350L0 350Z" fill="#161616"></path><path d="M0 451L82 451L82 451L164 451L164 451L245 451L245 451L327 451L327 451L409 451L409 451L491 451L491 451L573 451L573 451L655 451L655 451L736 451L736 451L818 451L818 451L900 451L900 451L900 422L900 391L818 391L818 413L736 413L736 409L655 409L655 413L573 413L573 373L491 373L491 377L409 377L409 409L327 409L327 377L245 377L245 386L164 386L164 373L82 373L82 418L0 418Z" fill="#111111"></path></svg>
